G04 DipTrace 3.3.1.3*
G04 Bottom.gbr*
%MOMM*%
G04 #@! TF.FileFunction,Copper,L2,Bot*
G04 #@! TF.Part,Single*
G04 #@! TA.AperFunction,Conductor*
%ADD10C,0.25*%
%ADD14C,0.5*%
%ADD18R,0.9X3.0*%
%ADD19R,3.0X0.9*%
G04 #@! TA.AperFunction,ComponentPad*
%ADD20C,1.7*%
%ADD21R,5.0X5.0*%
G04 #@! TA.AperFunction,ViaPad*
%ADD28C,1.016*%
%FSLAX35Y35*%
G04*
G71*
G90*
G75*
G01*
G04 Bottom*
%LPD*%
X3255710Y1878660D2*
D10*
X3267803Y1866567D1*
X3337950D1*
X2425950Y2195067D2*
Y2230283D1*
X2424593D1*
X1917950Y2195067D2*
X1912943Y2190060D1*
Y1927157D1*
X1761650Y1775863D1*
X1447527D1*
X1391143Y1832247D1*
Y2459610D1*
X1454960D1*
X2806950Y2195067D2*
Y1319853D1*
X2808073D1*
X2679950Y2195067D2*
Y1193113D1*
X2679537D1*
X3060950Y395067D2*
X3064677Y391340D1*
Y230077D1*
X3154050Y140703D1*
X3115543D1*
X3103423Y128583D1*
X3154723D1*
X2933950Y395067D2*
Y161810D1*
X2900723Y128583D1*
X2171950Y395067D2*
X2167190Y390307D1*
Y195810D1*
X2153630Y182250D1*
Y89107D1*
X2099247D1*
X2138723Y128583D1*
X1663157Y1934653D2*
D14*
Y2100577D1*
X1647637Y2116097D1*
Y2195067D1*
X1663950D1*
X2044950D2*
D10*
X2040480Y2190597D1*
Y1948433D1*
X1795360Y1703313D1*
X1340083D1*
X1200960Y1842437D1*
Y2459610D1*
X2171950Y2195067D2*
Y1975480D1*
X1835663Y1639193D1*
X1011563D1*
X946960Y1703797D1*
Y2459610D1*
X2298950Y2195067D2*
Y2005380D1*
X1872307Y1578737D1*
X841590D1*
X692960Y1727367D1*
Y2459610D1*
X1917950Y395067D2*
X1922313Y399430D1*
Y554430D1*
X1777710Y699033D1*
X755470D1*
X198487Y142050D1*
X197830D1*
X1790950Y2195067D2*
Y2000443D1*
X1792117D1*
X2044950Y395067D2*
Y561390D1*
X1839443Y766897D1*
X603363D1*
X226830Y390363D1*
X197807D1*
Y396050D1*
X2425950Y395067D2*
Y549543D1*
X2140533Y834960D1*
X481993D1*
X289303Y642270D1*
X197807D1*
Y650050D1*
X3060950Y2195067D2*
X3040477Y2174593D1*
Y1198183D1*
X2804890Y962597D1*
X622770D1*
X456363Y1129003D1*
Y1421417D1*
X3187950Y2195067D2*
X3166147Y2173263D1*
Y1998263D1*
X3119020Y1951137D1*
Y1157020D1*
X2861873Y899873D1*
X197763D1*
X197807Y899917D1*
Y904050D1*
X1790950Y395067D2*
Y542060D1*
X1691033Y641977D1*
X1237610D1*
X1122723Y527090D1*
Y128583D1*
X1663950Y395067D2*
X1655023Y403993D1*
Y558933D1*
X1628857Y585100D1*
X1417770D1*
X1329397Y496727D1*
Y175910D1*
X1376723Y128583D1*
X2472097Y700683D2*
X2475970Y696810D1*
X3039957D1*
X3187950Y548817D1*
Y395067D1*
X456363Y2183417D2*
X587470Y2052310D1*
Y1272707D1*
X824683Y1035493D1*
X2722613D1*
X2933950Y1246830D1*
Y2195067D1*
X1536950Y395067D2*
D14*
Y222357D1*
X1630723Y128583D1*
X1056683Y1177103D2*
X1065220D1*
Y1282583D1*
X1177703Y1395067D1*
X1709273D1*
X1764083D1*
X2287950D1*
X2368050Y1475167D1*
Y1544557D1*
X2287950Y1464457D1*
Y1395067D1*
X1709273Y1393257D2*
Y1395067D1*
X456363Y1929417D2*
X378677D1*
X374517Y1933577D1*
X318137D1*
X184960Y2066753D1*
Y2459610D1*
X1536950Y2195067D2*
X1523337Y2181453D1*
Y2031490D1*
X1523163Y2031317D1*
Y1878110D1*
D28*
X1056683Y1177103D3*
X2368050Y1544557D3*
X1709273Y1393257D3*
X2679537Y1193113D3*
X2808073Y1319853D3*
X1663157Y1934653D3*
X2424593Y2230283D3*
X1523163Y1878110D3*
X1792117Y2000443D3*
X3255710Y1878660D3*
X2472097Y700683D3*
D18*
X3187950Y2195067D3*
Y395067D3*
D19*
X3337950Y1866567D3*
Y1739567D3*
Y1612567D3*
Y1485567D3*
Y1358567D3*
Y1231567D3*
Y1104567D3*
Y977567D3*
Y850567D3*
Y723567D3*
D18*
X3060950Y2195067D3*
X2933950D3*
X2806950D3*
X2679950D3*
X2552950D3*
X2425950D3*
X2298950D3*
X2171950D3*
X2044950D3*
X1917950D3*
X1790950D3*
X1663950D3*
X1536950D3*
X3060950Y395067D3*
X2933950D3*
D20*
X614723Y128583D3*
X868723D3*
X1122723D3*
X1376723D3*
X1630723D3*
X1884723D3*
X2138723D3*
X2392723D3*
X2646723D3*
X2900723D3*
X3154723D3*
X3408723D3*
X456363Y1421417D3*
Y1675417D3*
Y1929417D3*
Y2183417D3*
X197830Y142050D3*
X197807Y396050D3*
Y650050D3*
Y904050D3*
D18*
X2806950Y395067D3*
X2679950D3*
X2552950D3*
X2425950D3*
X2298950D3*
X2171950D3*
X2044950D3*
X1917950D3*
X1790950D3*
X1663950D3*
X1536950D3*
D21*
X2287950Y1395067D3*
D20*
X1708960Y2459610D3*
X1454960D3*
X1200960D3*
X946960D3*
X692960D3*
X438960D3*
X184960D3*
M02*
