M48
METRIC,0000.00
T01C0.61
T02C1.0
%
T01
X+001057Y+001177
X+001709Y+001393
X+001523Y+001878
X+001663Y+001935
X+001792Y+002000
X+002425Y+002230
X+002368Y+001545
X+002680Y+001193
X+002808Y+001320
X+002472Y+000701
X+003256Y+001879
T02
X+000615Y+000129
X+000869Y+000129
X+001123Y+000129
X+001377Y+000129
X+001631Y+000129
X+001885Y+000129
X+002139Y+000129
X+002393Y+000129
X+002647Y+000129
X+002901Y+000129
X+003155Y+000129
X+003409Y+000129
X+001709Y+002460
X+001455Y+002460
X+001201Y+002460
X+000947Y+002460
X+000693Y+002460
X+000439Y+002460
X+000185Y+002460
X+000456Y+002183
X+000456Y+001929
X+000456Y+001675
X+000456Y+001421
X+000198Y+000904
X+000198Y+000650
X+000198Y+000396
X+000198Y+000142
T00
M30
