G04 DipTrace 3.3.1.3*
G04 TopMask.gbr*
%MOMM*%
G04 #@! TF.FileFunction,Soldermask,Top*
G04 #@! TF.Part,Single*
%ADD34R,3.45X2.35*%
%ADD36R,1.15X2.35*%
%ADD38R,2.0X1.8*%
%ADD40R,0.85X1.25*%
%ADD44C,1.9*%
%ADD50R,1.8X2.0*%
%FSLAX35Y35*%
G04*
G71*
G90*
G75*
G01*
G04 TopMask*
%LPD*%
D50*
X1315460Y773797D3*
X1035460D3*
X1394890Y502473D3*
X1114890D3*
D44*
X614723Y128583D3*
X868723D3*
X1122723D3*
X1376723D3*
X1630723D3*
X1884723D3*
X2138723D3*
X2392723D3*
X2646723D3*
X2900723D3*
X3154723D3*
X3408723D3*
X456363Y1421417D3*
Y1675417D3*
Y1929417D3*
Y2183417D3*
X197830Y142050D3*
X197807Y396050D3*
Y650050D3*
Y904050D3*
D40*
X1750690Y2234323D3*
X1560690D3*
X1655690Y2004323D3*
D38*
X2211313Y1816813D3*
Y1536813D3*
X1904560Y1825140D3*
Y1545140D3*
D50*
X1975877Y703467D3*
X2255877D3*
D36*
X1061363Y1018147D3*
X1291363D3*
X1521363D3*
D34*
X1291363Y1598147D3*
D38*
X2517603Y1535103D3*
Y1815103D3*
D44*
X1708960Y2459610D3*
X1454960D3*
X1200960D3*
X946960D3*
X692960D3*
X438960D3*
X184960D3*
M02*
