G04 DipTrace 3.3.1.3*
G04 TopSilk.gbr*
%MOMM*%
G04 #@! TF.FileFunction,Legend,Top*
G04 #@! TF.Part,Single*
%ADD10C,0.25*%
%ADD22O,0.39127X0.39172*%
%ADD25O,0.39124X0.39194*%
%ADD52C,0.19608*%
%ADD53C,0.22222*%
%ADD54C,0.15686*%
%FSLAX35Y35*%
G04*
G71*
G90*
G75*
G01*
G04 TopSilk*
%LPD*%
X1186460Y853717D2*
D10*
Y693877D1*
X1205380Y853717D2*
Y693877D1*
Y853717D2*
X1145540D1*
X1205380Y693877D2*
X1145540D1*
X1265890Y582393D2*
Y422553D1*
X1284810Y582393D2*
Y422553D1*
Y582393D2*
X1224970D1*
X1284810Y422553D2*
X1224970D1*
D22*
X1829046Y2271684D3*
X1805676Y2144324D2*
D10*
X1505690D1*
Y2094323D1*
X1805676D1*
Y2144324D1*
X2131393Y1706733D2*
Y1646893D1*
X2291233Y1706733D2*
Y1646893D1*
X1824640Y1715060D2*
Y1655220D1*
X1984480Y1715060D2*
Y1655220D1*
X2085957Y623547D2*
X2145797D1*
X2085957Y783387D2*
X2145797D1*
D25*
X964007Y941453D3*
X961367Y1168147D2*
D10*
X1621335D1*
X961367Y1448146D2*
X1621335D1*
Y1168147D2*
Y1448146D1*
X961367Y1168147D2*
Y1448146D1*
X2597523Y1645183D2*
Y1705023D1*
X2437683Y1645183D2*
Y1705023D1*
X53030Y2586610D2*
Y2332610D1*
X1831030Y2586610D2*
X53030D1*
X1831030D2*
Y2332610D1*
X53030D1*
X3535723Y1583D2*
Y255583D1*
X487723Y1583D2*
X3535723D1*
X487723D2*
Y255583D1*
X679747D1*
X3535723D1*
X584493Y2310417D2*
X330493D1*
X584083Y1292013D2*
X582217Y2299977D1*
X330393Y1296053D2*
X330727Y2299977D1*
X584493Y1294767D2*
X330493D1*
X324807Y1031050D2*
X70807D1*
X324397Y12647D2*
X322530Y1020610D1*
X70707Y16687D2*
X71040Y1020610D1*
X324807Y15400D2*
X70807D1*
X2924317Y1480110D2*
X3224317D1*
Y480110D1*
X2924317D1*
Y1480110D1*
X3224317D2*
X3524317D1*
Y480110D1*
X3224317D1*
Y1480110D1*
X2924317Y2280110D2*
X3224317D1*
Y1480110D1*
X2924317D1*
Y2280110D1*
X3224317D2*
X3524317D1*
Y1480110D1*
X3224317D1*
Y2280110D1*
X2627333Y2280370D2*
X2927333D1*
Y480370D1*
X2627333D1*
Y2280370D1*
X1529517Y800874D2*
D52*
X1523481Y812947D1*
X1511267Y825160D1*
X1499194Y831197D1*
X1474907D1*
X1462694Y825160D1*
X1450621Y812947D1*
X1444444Y800874D1*
X1438407Y782624D1*
Y752160D1*
X1444444Y734050D1*
X1450621Y721837D1*
X1462694Y709764D1*
X1474907Y703587D1*
X1499194D1*
X1511267Y709764D1*
X1523481Y721837D1*
X1529517Y734050D1*
X1580946Y831056D2*
X1647629D1*
X1611269Y782483D1*
X1629519D1*
X1641592Y776447D1*
X1647629Y770410D1*
X1653806Y752160D1*
Y740087D1*
X1647629Y721837D1*
X1635556Y709624D1*
X1617306Y703587D1*
X1599056D1*
X1580946Y709624D1*
X1574910Y715800D1*
X1568733Y727874D1*
X877157Y543807D2*
X871121Y555880D1*
X858907Y568093D1*
X846834Y574130D1*
X822547D1*
X810334Y568093D1*
X798261Y555880D1*
X792084Y543807D1*
X786047Y525557D1*
Y495093D1*
X792084Y476984D1*
X798261Y464770D1*
X810334Y452697D1*
X822547Y446520D1*
X846834D1*
X858907Y452697D1*
X871121Y464770D1*
X877157Y476984D1*
X989232Y573990D2*
X928586D1*
X922550Y519380D1*
X928586Y525416D1*
X946836Y531593D1*
X964946D1*
X983196Y525416D1*
X995409Y513343D1*
X1001446Y495093D1*
Y483020D1*
X995409Y464770D1*
X983196Y452557D1*
X964946Y446520D1*
X946836D1*
X928586Y452557D1*
X922550Y458734D1*
X916373Y470807D1*
X733456Y1969495D2*
Y2097105D1*
X684883Y1969495D1*
X636310Y2097105D1*
Y1969495D1*
X869818D2*
Y2097105D1*
X821245Y1969495D1*
X772672Y2097105D1*
Y1969495D1*
X909033Y2097105D2*
Y1969495D1*
X963783D1*
X982033Y1975672D1*
X988070Y1981709D1*
X994107Y1993782D1*
Y2012032D1*
X988070Y2024245D1*
X982033Y2030282D1*
X963783Y2036318D1*
X982033Y2042495D1*
X988070Y2048532D1*
X994107Y2060605D1*
Y2072818D1*
X988070Y2084891D1*
X982033Y2091068D1*
X963783Y2097105D1*
X909033D1*
Y2036318D2*
X963783D1*
X1075859Y2097105D2*
Y1969495D1*
X1033322Y2097105D2*
X1118395D1*
X1163788Y2066641D2*
Y2072678D1*
X1169824Y2084891D1*
X1175861Y2090928D1*
X1188074Y2096965D1*
X1212361D1*
X1224434Y2090928D1*
X1230471Y2084891D1*
X1236648Y2072678D1*
Y2060605D1*
X1230471Y2048391D1*
X1218398Y2030282D1*
X1157611Y1969495D1*
X1242684D1*
X1288077Y2066641D2*
Y2072678D1*
X1294113Y2084891D1*
X1300150Y2090928D1*
X1312363Y2096965D1*
X1336650D1*
X1348723Y2090928D1*
X1354759Y2084891D1*
X1360936Y2072678D1*
Y2060605D1*
X1354759Y2048391D1*
X1342686Y2030282D1*
X1281900Y1969495D1*
X1366973D1*
X1412365Y2066641D2*
Y2072678D1*
X1418402Y2084891D1*
X1424439Y2090928D1*
X1436652Y2096965D1*
X1460939D1*
X1473012Y2090928D1*
X1479048Y2084891D1*
X1485225Y2072678D1*
Y2060605D1*
X1479048Y2048391D1*
X1466975Y2030282D1*
X1406189Y1969495D1*
X1491262D1*
X1536654Y2066641D2*
Y2072678D1*
X1542691Y2084891D1*
X1548727Y2090928D1*
X1560941Y2096965D1*
X1585227D1*
X1597300Y2090928D1*
X1603337Y2084891D1*
X1609514Y2072678D1*
Y2060605D1*
X1603337Y2048391D1*
X1591264Y2030282D1*
X1530477Y1969495D1*
X1615550D1*
X2102166Y2001593D2*
X2156775D1*
X2175025Y2007770D1*
X2181202Y2013807D1*
X2187239Y2025880D1*
Y2038093D1*
X2181202Y2050166D1*
X2175025Y2056343D1*
X2156775Y2062380D1*
X2102166D1*
Y1934770D1*
X2144702Y2001593D2*
X2187239Y1934770D1*
X2232631Y2031916D2*
Y2037953D1*
X2238668Y2050166D1*
X2244705Y2056203D1*
X2256918Y2062240D1*
X2281205D1*
X2293278Y2056203D1*
X2299314Y2050166D1*
X2305491Y2037953D1*
Y2025880D1*
X2299314Y2013666D1*
X2287241Y1995557D1*
X2226455Y1934770D1*
X2311528D1*
X1804916Y2009920D2*
X1859525D1*
X1877775Y2016097D1*
X1883952Y2022134D1*
X1889989Y2034207D1*
Y2046420D1*
X1883952Y2058493D1*
X1877775Y2064670D1*
X1859525Y2070707D1*
X1804916D1*
Y1943097D1*
X1847452Y2009920D2*
X1889989Y1943097D1*
X1941418Y2070566D2*
X2008101D1*
X1971741Y2021993D1*
X1989991D1*
X2002064Y2015957D1*
X2008101Y2009920D1*
X2014278Y1991670D1*
Y1979597D1*
X2008101Y1961347D1*
X1996028Y1949134D1*
X1977778Y1943097D1*
X1959528D1*
X1941418Y1949134D1*
X1935381Y1955310D1*
X1929205Y1967384D1*
X2008177Y918667D2*
X2062787D1*
X2081037Y924844D1*
X2087214Y930880D1*
X2093251Y942953D1*
Y955167D1*
X2087214Y967240D1*
X2081037Y973417D1*
X2062787Y979453D1*
X2008177D1*
Y851844D1*
X2050714Y918667D2*
X2093251Y851844D1*
X2193253D2*
Y979313D1*
X2132466Y894380D1*
X2223576D1*
X888587Y1328803D2*
X943196D1*
X961446Y1334980D1*
X967623Y1341017D1*
X973660Y1353090D1*
Y1365303D1*
X967623Y1377376D1*
X961446Y1383553D1*
X943196Y1389590D1*
X888587D1*
Y1261980D1*
X931123Y1328803D2*
X973660Y1261980D1*
X1091772Y1389590D2*
X1012876D1*
Y1261980D1*
X1091772D1*
X1012876Y1328803D2*
X1061449D1*
X1222097Y1359267D2*
X1216060Y1371340D1*
X1203847Y1383553D1*
X1191774Y1389590D1*
X1167487D1*
X1155274Y1383553D1*
X1143201Y1371340D1*
X1137024Y1359267D1*
X1130987Y1341017D1*
Y1310553D1*
X1137024Y1292444D1*
X1143201Y1280230D1*
X1155274Y1268157D1*
X1167487Y1261980D1*
X1191774D1*
X1203847Y1268157D1*
X1216060Y1280230D1*
X1222097Y1292444D1*
Y1310553D1*
X1191774D1*
X1261313Y1365163D2*
X1273526Y1371340D1*
X1291776Y1389450D1*
Y1261980D1*
X1330992Y1365163D2*
X1343205Y1371340D1*
X1361455Y1389450D1*
Y1261980D1*
X1400671Y1365163D2*
X1412884Y1371340D1*
X1431134Y1389450D1*
Y1261980D1*
X1494637D2*
X1555423Y1389450D1*
X1470350D1*
X1594639Y1325715D2*
X1664831D1*
X1776906Y1389450D2*
X1716260D1*
X1710224Y1334840D1*
X1716260Y1340876D1*
X1734510Y1347053D1*
X1752620D1*
X1770870Y1340876D1*
X1783083Y1328803D1*
X1789120Y1310553D1*
Y1298480D1*
X1783083Y1280230D1*
X1770870Y1268017D1*
X1752620Y1261980D1*
X1734510D1*
X1716260Y1268017D1*
X1710224Y1274194D1*
X1704047Y1286267D1*
X2435761Y1999883D2*
X2490370D1*
X2508620Y2006060D1*
X2514797Y2012097D1*
X2520834Y2024170D1*
Y2036383D1*
X2514797Y2048456D1*
X2508620Y2054633D1*
X2490370Y2060670D1*
X2435761D1*
Y1933060D1*
X2478297Y1999883D2*
X2520834Y1933060D1*
X2560049Y2036243D2*
X2572263Y2042420D1*
X2590513Y2060530D1*
Y1933060D1*
X667919Y2259447D2*
Y2174374D1*
Y2222947D2*
X674096Y2241197D1*
X686169Y2253410D1*
X698383Y2259447D1*
X716633D1*
X755848D2*
X822671Y2174374D1*
Y2259447D2*
X755848Y2174374D1*
X922674D2*
Y2301843D1*
X861887Y2216910D1*
X952997D1*
X1022535Y2301843D2*
X1004426Y2295806D1*
X998249Y2283733D1*
Y2271520D1*
X1004426Y2259447D1*
X1016499Y2253270D1*
X1040785Y2247233D1*
X1059035Y2241197D1*
X1071109Y2228983D1*
X1077145Y2216910D1*
Y2198660D1*
X1071109Y2186587D1*
X1065072Y2180410D1*
X1046822Y2174374D1*
X1022535D1*
X1004426Y2180410D1*
X998249Y2186587D1*
X992212Y2198660D1*
Y2216910D1*
X998249Y2228983D1*
X1010462Y2241197D1*
X1028572Y2247233D1*
X1052859Y2253270D1*
X1065072Y2259447D1*
X1071109Y2271520D1*
Y2283733D1*
X1065072Y2295806D1*
X1046822Y2301843D1*
X1022535D1*
X1152861D2*
X1134611Y2295806D1*
X1122397Y2277556D1*
X1116361Y2247233D1*
Y2228983D1*
X1122397Y2198660D1*
X1134611Y2180410D1*
X1152861Y2174374D1*
X1164934D1*
X1183184Y2180410D1*
X1195257Y2198660D1*
X1201434Y2228983D1*
Y2247233D1*
X1195257Y2277556D1*
X1183184Y2295806D1*
X1164934Y2301843D1*
X1152861D1*
X1195257Y2277556D2*
X1122397Y2198660D1*
X1240649Y2222947D2*
X1313509D1*
Y2235160D1*
X1307473Y2247374D1*
X1301436Y2253410D1*
X1289223Y2259447D1*
X1270973D1*
X1258899Y2253410D1*
X1246686Y2241197D1*
X1240649Y2222947D1*
Y2210874D1*
X1246686Y2192624D1*
X1258899Y2180551D1*
X1270973Y2174374D1*
X1289223D1*
X1301436Y2180551D1*
X1313509Y2192624D1*
X3017152Y591221D2*
D53*
X3119240Y630080D1*
X3017152Y668938D1*
X3080381Y713383D2*
Y771670D1*
X3070611D1*
X3060840Y766841D1*
X3056011Y762012D1*
X3051181Y752241D1*
Y737641D1*
X3056011Y727983D1*
X3065781Y718212D1*
X3080381Y713383D1*
X3090040D1*
X3104640Y718212D1*
X3114298Y727983D1*
X3119240Y737641D1*
Y752241D1*
X3114298Y762012D1*
X3104640Y771670D1*
X3051181Y816115D2*
X3119240D1*
X3080381D2*
X3065781Y821056D1*
X3056011Y830715D1*
X3051181Y840485D1*
Y855085D1*
X3065781Y952988D2*
X3056011Y948159D1*
X3051181Y933559D1*
Y918959D1*
X3056011Y904359D1*
X3065781Y899530D1*
X3075440Y904359D1*
X3080381Y914130D1*
X3085211Y938388D1*
X3090040Y948159D1*
X3099811Y952988D1*
X3104640D1*
X3114298Y948159D1*
X3119240Y933559D1*
Y918959D1*
X3114298Y904359D1*
X3104640Y899530D1*
X3017152Y997433D2*
X3021981Y1002262D1*
X3017152Y1007204D1*
X3012211Y1002262D1*
X3017152Y997433D1*
X3051181Y1002262D2*
X3119240D1*
X3051181Y1075906D2*
X3056011Y1066248D1*
X3065781Y1056477D1*
X3080381Y1051648D1*
X3090040D1*
X3104640Y1056477D1*
X3114298Y1066248D1*
X3119240Y1075906D1*
Y1090506D1*
X3114298Y1100277D1*
X3104640Y1109936D1*
X3090040Y1114877D1*
X3080381D1*
X3065781Y1109936D1*
X3056011Y1100277D1*
X3051181Y1090506D1*
Y1075906D1*
Y1159322D2*
X3119240D1*
X3070611D2*
X3056011Y1173922D1*
X3051181Y1183692D1*
Y1198180D1*
X3056011Y1207951D1*
X3070611Y1212780D1*
X3119240D1*
X3317152Y641011D2*
D54*
Y577894D1*
X3419240D1*
Y641011D1*
X3365781Y577894D2*
Y616752D1*
X3331752Y740442D2*
X3321981Y730783D1*
X3317152Y716183D1*
Y696754D1*
X3321981Y682154D1*
X3331752Y672383D1*
X3341411D1*
X3351181Y677325D1*
X3356011Y682154D1*
X3360840Y691812D1*
X3370611Y721012D1*
X3375440Y730783D1*
X3380381Y735612D1*
X3390040Y740442D1*
X3404640D1*
X3414298Y730783D1*
X3419240Y716183D1*
Y696754D1*
X3414298Y682154D1*
X3404640Y672383D1*
X3370611Y771814D2*
Y815614D1*
X3365781Y830102D1*
X3360840Y835043D1*
X3351181Y839873D1*
X3336581D1*
X3326923Y835043D1*
X3321981Y830102D1*
X3317152Y815614D1*
Y771814D1*
X3419240D1*
X3317264Y881016D2*
Y934362D1*
X3356123Y905274D1*
Y919874D1*
X3360952Y929533D1*
X3365781Y934362D1*
X3380381Y939304D1*
X3390040D1*
X3404640Y934362D1*
X3414411Y924704D1*
X3419240Y910104D1*
Y895504D1*
X3414411Y881016D1*
X3409469Y876187D1*
X3399811Y871245D1*
X3341523Y975618D2*
X3336694D1*
X3326923Y980447D1*
X3322094Y985276D1*
X3317264Y995047D1*
Y1014476D1*
X3322094Y1024135D1*
X3326923Y1028964D1*
X3336694Y1033905D1*
X3346352D1*
X3356123Y1028964D1*
X3370611Y1019305D1*
X3419240Y970676D1*
Y1038735D1*
X3351181Y1168864D2*
X3419240Y1198064D1*
X3351181Y1227152D1*
X3336694Y1258525D2*
X3331752Y1268295D1*
X3317264Y1282895D1*
X3419240D1*
X3341523Y1319209D2*
X3336694D1*
X3326923Y1324039D1*
X3322094Y1328868D1*
X3317264Y1338639D1*
Y1358068D1*
X3322094Y1367726D1*
X3326923Y1372556D1*
X3336694Y1377497D1*
X3346352D1*
X3356123Y1372556D1*
X3370611Y1362897D1*
X3419240Y1314268D1*
Y1382326D1*
X3017152Y1735671D2*
D53*
X3119240Y1735670D1*
X3017152Y1667612D1*
X3119240D1*
X3051181Y1838402D2*
X3119240D1*
X3065781D2*
X3056011Y1828744D1*
X3051181Y1818973D1*
Y1804486D1*
X3056011Y1794715D1*
X3065781Y1785056D1*
X3080381Y1780115D1*
X3090040D1*
X3104640Y1785056D1*
X3114298Y1794715D1*
X3119240Y1804485D1*
Y1818973D1*
X3114298Y1828744D1*
X3104640Y1838402D1*
X3051181Y1882847D2*
X3119240D1*
X3070611D2*
X3056011Y1897447D1*
X3051181Y1907218D1*
Y1921705D1*
X3056011Y1931476D1*
X3070611Y1936305D1*
X3119240D1*
X3070611D2*
X3056011Y1950905D1*
X3051181Y1960676D1*
Y1975164D1*
X3056011Y1984935D1*
X3070611Y1989876D1*
X3119240D1*
X3080381Y2034321D2*
Y2092608D1*
X3070611D1*
X3060840Y2087779D1*
X3056011Y2082950D1*
X3051181Y2073179D1*
Y2058579D1*
X3056011Y2048921D1*
X3065781Y2039150D1*
X3080381Y2034321D1*
X3090040D1*
X3104640Y2039150D1*
X3114298Y2048921D1*
X3119240Y2058579D1*
Y2073179D1*
X3114298Y2082950D1*
X3104640Y2092608D1*
X3317152Y1714005D2*
D54*
X3419240D1*
Y1757805D1*
X3414298Y1772405D1*
X3409469Y1777234D1*
X3399811Y1782064D1*
X3385211D1*
X3375440Y1777234D1*
X3370611Y1772405D1*
X3365781Y1757805D1*
X3360840Y1772405D1*
X3356011Y1777234D1*
X3346352Y1782064D1*
X3336581D1*
X3326923Y1777235D1*
X3321981Y1772405D1*
X3317152Y1757805D1*
Y1714005D1*
X3365781D2*
Y1757805D1*
X3351181Y1871724D2*
X3419240D1*
X3365781D2*
X3356011Y1862065D1*
X3351181Y1852295D1*
Y1837807D1*
X3356011Y1828036D1*
X3365781Y1818378D1*
X3380381Y1813436D1*
X3390040D1*
X3404640Y1818378D1*
X3414298Y1828036D1*
X3419240Y1837807D1*
Y1852295D1*
X3414298Y1862065D1*
X3404640Y1871724D1*
X3365781Y1956555D2*
X3356011Y1951726D1*
X3351181Y1937126D1*
Y1922526D1*
X3356011Y1907926D1*
X3365781Y1903096D1*
X3375440Y1907926D1*
X3380381Y1917696D1*
X3385211Y1941955D1*
X3390040Y1951726D1*
X3399811Y1956555D1*
X3404640D1*
X3414298Y1951726D1*
X3419240Y1937126D1*
Y1922526D1*
X3414298Y1907926D1*
X3404640Y1903096D1*
X3380381Y1987927D2*
Y2046215D1*
X3370611D1*
X3360840Y2041386D1*
X3356011Y2036557D1*
X3351181Y2026786D1*
Y2012186D1*
X3356011Y2002527D1*
X3365781Y1992757D1*
X3380381Y1987927D1*
X3390040D1*
X3404640Y1992757D1*
X3414298Y2002527D1*
X3419240Y2012186D1*
Y2026786D1*
X3414298Y2036557D1*
X3404640Y2046215D1*
X2724128Y810518D2*
D52*
X2711914Y798445D1*
X2705878Y780195D1*
Y755908D1*
X2711914Y737658D1*
X2724128Y725445D1*
X2736201D1*
X2748414Y731622D1*
X2754451Y737658D1*
X2760487Y749731D1*
X2772701Y786231D1*
X2778737Y798445D1*
X2784914Y804481D1*
X2796987Y810518D1*
X2815237D1*
X2827310Y798445D1*
X2833487Y780195D1*
Y755908D1*
X2827310Y737658D1*
X2815237Y725445D1*
X2748414Y849733D2*
X2833487D1*
X2772701D2*
X2754451Y867983D1*
X2748414Y880197D1*
Y898306D1*
X2754451Y910520D1*
X2772701Y916556D1*
X2833487D1*
X2772701D2*
X2754451Y934806D1*
X2748414Y947020D1*
Y965129D1*
X2754451Y977343D1*
X2772701Y983520D1*
X2833487D1*
X2748414Y1095595D2*
X2833487D1*
X2766664D2*
X2754451Y1083522D1*
X2748414Y1071309D1*
Y1053199D1*
X2754451Y1040985D1*
X2766664Y1028912D1*
X2784914Y1022735D1*
X2796987D1*
X2815237Y1028912D1*
X2827310Y1040985D1*
X2833487Y1053199D1*
Y1071309D1*
X2827310Y1083522D1*
X2815237Y1095595D1*
X2748414Y1134811D2*
X2833487D1*
X2784914D2*
X2766664Y1140988D1*
X2754451Y1153061D1*
X2748414Y1165274D1*
Y1183524D1*
X2705878Y1240990D2*
X2809201D1*
X2827310Y1247026D1*
X2833487Y1259240D1*
Y1271313D1*
X2748414Y1222740D2*
Y1265276D1*
X2766664Y1377352D2*
X2754451Y1371315D1*
X2748414Y1353065D1*
Y1334815D1*
X2754451Y1316565D1*
X2766664Y1310529D1*
X2778737Y1316565D1*
X2784914Y1328779D1*
X2790951Y1359102D1*
X2796987Y1371315D1*
X2809201Y1377352D1*
X2815237D1*
X2827310Y1371315D1*
X2833487Y1353065D1*
Y1334815D1*
X2827310Y1316565D1*
X2815237Y1310529D1*
X2833487Y1477354D2*
X2706018D1*
X2790951Y1416567D1*
Y1507677D1*
X2705878Y1546893D2*
X2833487D1*
X2705878Y1631966D2*
X2833487D1*
X2766664Y1546893D2*
Y1631966D1*
X2748414Y1701505D2*
X2754451Y1689431D1*
X2766664Y1677218D1*
X2784914Y1671181D1*
X2796987D1*
X2815237Y1677218D1*
X2827310Y1689431D1*
X2833487Y1701505D1*
Y1719755D1*
X2827310Y1731968D1*
X2815237Y1744041D1*
X2796987Y1750218D1*
X2784914D1*
X2766664Y1744041D1*
X2754451Y1731968D1*
X2748414Y1719755D1*
Y1701505D1*
Y1789434D2*
X2833487D1*
X2772701D2*
X2754451Y1807684D1*
X2748414Y1819897D1*
Y1838007D1*
X2754451Y1850220D1*
X2772701Y1856257D1*
X2833487D1*
X2772701D2*
X2754451Y1874507D1*
X2748414Y1886720D1*
Y1904830D1*
X2754451Y1917043D1*
X2772701Y1923220D1*
X2833487D1*
X2784914Y1962436D2*
Y2035296D1*
X2772701D1*
X2760487Y2029259D1*
X2754451Y2023222D1*
X2748414Y2011009D1*
Y1992759D1*
X2754451Y1980686D1*
X2766664Y1968472D1*
X2784914Y1962436D1*
X2796987D1*
X2815237Y1968472D1*
X2827310Y1980686D1*
X2833487Y1992759D1*
Y2011009D1*
X2827310Y2023222D1*
X2815237Y2035296D1*
M02*
